<svg xmlns="http://www.w3.org/2000/svg" viewBox="0 0 73 48" fill="none">
<g clip-path="url(#clip0_2002_1331)">
<path d="M73.0737 37.5799C73.0737 37.5799 52.8642 55.699 43.8005 37.5799V37.5883C52.86 19.4692 73.0737 37.5883 73.0737 37.5883" fill="#AACF00"/>
<path d="M60.927 8.80725C61.0195 8.90819 60.8218 11.1205 60.048 14.0352C59.4928 16.1298 58.6053 18.565 57.3351 20.853C55.842 23.5406 53.8442 26.0137 51.1356 27.389C48.3387 28.798 44.852 29.063 40.5703 27.3301C39.2455 22.8971 39.8385 19.4524 41.5083 16.8027C43.1359 14.2329 45.7857 12.479 48.6036 11.2467C51.001 10.1994 53.5078 9.5517 55.6444 9.19419C58.6179 8.7021 60.8387 8.71472 60.9312 8.81566" fill="#AACF00"/>
<path d="M35.1531 9.86337e-05C35.4181 0.0463638 36.5116 1.67406 37.5336 4.08405C38.2865 5.87157 38.787 7.79788 39.0772 10.1322C39.4095 12.7693 39.3212 15.0405 38.1856 17.3874C36.9785 19.8941 34.8461 21.6059 31.0986 22.5901C27.8853 20.4114 26.5604 18.0561 26.2534 15.2886C25.9674 12.6978 26.7917 10.5528 27.9862 8.17641C29.0419 6.07345 30.2448 4.49202 31.5528 3.0578C33.3193 1.12729 34.8923 -0.0461665 35.1573 9.86337e-05" fill="#AACF00"/>
<path d="M11.3013 6.96087C11.6504 6.75899 13.2907 7.19641 15.2675 8.21845C16.7901 9.01336 18.4514 10.2163 19.9277 11.7052C21.5091 13.2992 22.8676 15.133 23.3681 17.2444C23.9317 19.6123 23.5027 22.1653 21.6016 24.6636C18.4893 25.0842 16.054 24.1967 14.2749 22.5354C12.6893 21.0549 11.7682 18.9688 11.1625 16.8069C10.5989 14.7881 10.3718 12.7482 10.4349 11.0322C10.5232 8.80727 10.9522 7.16696 11.3013 6.96087Z" fill="#AACF00"/>
<path d="M0.685539 26.6067C0.8706 26.0977 2.15761 25.4584 3.94513 25.0757C5.40458 24.7687 7.1921 24.7308 9.01747 25.0084C10.8302 25.2818 12.5967 25.7991 13.9636 26.8632C15.6124 28.146 16.6386 30.0177 16.6134 32.4234C15.0109 34.3624 12.5715 35.2709 10.09 34.8418C7.37716 34.375 4.89987 32.8062 3.03244 30.821C2.38473 30.1354 1.78749 29.3826 1.30381 28.5708C0.992572 28.0493 0.454214 27.2333 0.685539 26.5982" fill="#AACF00"/>
<path d="M4.02508 45.8699C3.79375 45.2348 4.21014 44.1371 5.10179 43.0099C5.89251 42.0173 7.0912 41.0709 8.5128 40.3391C9.78719 39.6872 11.1163 39.2245 12.4117 39.2119C14.1529 39.1909 15.7007 39.847 16.6386 41.2476C16.8237 42.9215 16.0708 44.4231 14.7292 45.5334C13.7281 46.362 12.4201 46.8667 11.0237 47.1905C9.46754 47.5565 7.93659 47.6069 6.69584 47.3588C5.28686 47.0728 4.2564 46.505 4.02508 45.8699Z" fill="#AACF00"/>
</g>
<defs>
<clipPath id="clip0_2002_1331">
<rect width="73" height="48" fill="white"/>
</clipPath>
</defs>
</svg>
